<svg width="133" height="38" viewBox="0 0 133 38" fill="none" xmlns="http://www.w3.org/2000/svg">
<g clip-path="url(#clip0_99_2099)">
<path fill-rule="evenodd" clip-rule="evenodd" d="M76.9445 11.1875H46.7305V29.7934H55.7168V18.8977H71.1436L76.9445 11.1875Z" fill="#6E43E4"/>
<path fill-rule="evenodd" clip-rule="evenodd" d="M84.4825 17.5957L90.2992 23.2668L83.9442 29.8656H72.2031L84.4825 17.5957Z" fill="#111827"/>
<path fill-rule="evenodd" clip-rule="evenodd" d="M93.9062 8.23581L101.221 0.604729L112.927 0.49707L99.5172 13.986L93.9062 8.23581Z" fill="#111827"/>
<path fill-rule="evenodd" clip-rule="evenodd" d="M83.1371 0.570312H16.1672V0.589313C-4.79138 1.30492 -5.19668 29.7964 17.8074 29.7964H37.6989V12.3811L18.2317 12.3272L23.9914 19.4454H28.8962V22.2952H17.8137C7.23154 22.0988 6.26261 9.25265 16.8891 8.07791H79.0366L100.828 29.8692L111.86 29.7268L83.1371 0.570312Z" fill="#111827"/>
<path fill-rule="evenodd" clip-rule="evenodd" d="M101.268 16.0602L117.809 0.497189L126.181 0.443359L109.963 16.0602L132.932 37.8357L123.578 37.8262L101.268 16.0602Z" fill="#6E43E4"/>
</g>
<defs>
<clipPath id="clip0_99_2099">
<rect width="132.433" height="37.3923" fill="white" transform="translate(0.5 0.443359)"/>
</clipPath>
</defs>
</svg>
